<mxfile host="65bd71144e">
    <diagram id="iZOBNkel3cOd9gfPiWAJ" name="Page-1">
        <mxGraphModel dx="1770" dy="1190" grid="1" gridSize="10" guides="1" tooltips="1" connect="1" arrows="1" fold="1" page="1" pageScale="1" pageWidth="850" pageHeight="1100" math="0" shadow="0">
            <root>
                <mxCell id="0"/>
                <mxCell id="1" parent="0"/>
                <mxCell id="26" style="edgeStyle=none;html=1;exitX=0;exitY=0;exitDx=150;exitDy=65;exitPerimeter=0;entryX=0;entryY=0;entryDx=0;entryDy=65;entryPerimeter=0;" edge="1" parent="1" source="2" target="21">
                    <mxGeometry relative="1" as="geometry"/>
                </mxCell>
                <mxCell id="2" value="" style="shape=folder;fontStyle=1;tabWidth=110;tabHeight=30;tabPosition=left;html=1;boundedLbl=1;labelInHeader=1;container=1;collapsible=0;" vertex="1" parent="1">
                    <mxGeometry x="140" y="530" width="150" height="100" as="geometry"/>
                </mxCell>
                <mxCell id="3" value="Deposit" style="html=1;strokeColor=none;resizeWidth=1;resizeHeight=1;fillColor=none;part=1;connectable=0;allowArrows=0;deletable=0;" vertex="1" parent="2">
                    <mxGeometry width="150" height="70" relative="1" as="geometry">
                        <mxPoint y="30" as="offset"/>
                    </mxGeometry>
                </mxCell>
                <mxCell id="25" style="edgeStyle=none;html=1;exitX=0;exitY=0;exitDx=150;exitDy=65;exitPerimeter=0;entryX=0;entryY=0;entryDx=0;entryDy=65;entryPerimeter=0;" edge="1" parent="1" source="4" target="21">
                    <mxGeometry relative="1" as="geometry"/>
                </mxCell>
                <mxCell id="4" value="" style="shape=folder;fontStyle=1;tabWidth=110;tabHeight=30;tabPosition=left;html=1;boundedLbl=1;labelInHeader=1;container=1;collapsible=0;" vertex="1" parent="1">
                    <mxGeometry x="140" y="660" width="150" height="100" as="geometry"/>
                </mxCell>
                <mxCell id="5" value="Withdraw" style="html=1;strokeColor=none;resizeWidth=1;resizeHeight=1;fillColor=none;part=1;connectable=0;allowArrows=0;deletable=0;" vertex="1" parent="4">
                    <mxGeometry width="150" height="70" relative="1" as="geometry">
                        <mxPoint y="30" as="offset"/>
                    </mxGeometry>
                </mxCell>
                <mxCell id="6" value="" style="shape=folder;fontStyle=1;tabWidth=110;tabHeight=30;tabPosition=left;html=1;boundedLbl=1;labelInHeader=1;container=1;collapsible=0;" vertex="1" parent="1">
                    <mxGeometry x="400" y="210" width="150" height="100" as="geometry"/>
                </mxCell>
                <mxCell id="7" value="Utils" style="html=1;strokeColor=none;resizeWidth=1;resizeHeight=1;fillColor=none;part=1;connectable=0;allowArrows=0;deletable=0;" vertex="1" parent="6">
                    <mxGeometry width="150" height="70" relative="1" as="geometry">
                        <mxPoint y="30" as="offset"/>
                    </mxGeometry>
                </mxCell>
                <mxCell id="16" style="edgeStyle=none;html=1;exitX=0;exitY=0;exitDx=150;exitDy=65;exitPerimeter=0;" edge="1" parent="1" source="8">
                    <mxGeometry relative="1" as="geometry">
                        <mxPoint x="400" y="280" as="targetPoint"/>
                    </mxGeometry>
                </mxCell>
                <mxCell id="8" value="" style="shape=folder;fontStyle=1;tabWidth=110;tabHeight=30;tabPosition=left;html=1;boundedLbl=1;labelInHeader=1;container=1;collapsible=0;" vertex="1" parent="1">
                    <mxGeometry x="95" y="360" width="150" height="100" as="geometry"/>
                </mxCell>
                <mxCell id="9" value="Gui" style="html=1;strokeColor=none;resizeWidth=1;resizeHeight=1;fillColor=none;part=1;connectable=0;allowArrows=0;deletable=0;" vertex="1" parent="8">
                    <mxGeometry width="150" height="70" relative="1" as="geometry">
                        <mxPoint y="30" as="offset"/>
                    </mxGeometry>
                </mxCell>
                <mxCell id="15" style="edgeStyle=none;html=1;exitX=0;exitY=0;exitDx=220;exitDy=145;exitPerimeter=0;entryX=0;entryY=0;entryDx=0;entryDy=65;entryPerimeter=0;" edge="1" parent="1" source="10" target="6">
                    <mxGeometry relative="1" as="geometry"/>
                </mxCell>
                <mxCell id="10" value="" style="shape=folder;fontStyle=1;tabWidth=110;tabHeight=30;tabPosition=left;html=1;boundedLbl=1;labelInHeader=1;container=1;collapsible=0;" vertex="1" parent="1">
                    <mxGeometry x="60" y="70" width="220" height="260" as="geometry"/>
                </mxCell>
                <mxCell id="11" value="Resources" style="html=1;strokeColor=none;resizeWidth=1;resizeHeight=1;fillColor=none;part=1;connectable=0;allowArrows=0;deletable=0;" vertex="1" parent="10">
                    <mxGeometry width="220" height="182" relative="1" as="geometry">
                        <mxPoint y="30" as="offset"/>
                    </mxGeometry>
                </mxCell>
                <mxCell id="12" value="" style="shape=folder;fontStyle=1;tabWidth=110;tabHeight=30;tabPosition=left;html=1;boundedLbl=1;labelInHeader=1;container=1;collapsible=0;" vertex="1" parent="10">
                    <mxGeometry x="35" y="150" width="150" height="70" as="geometry"/>
                </mxCell>
                <mxCell id="13" value="Assets" style="html=1;strokeColor=none;resizeWidth=1;resizeHeight=1;fillColor=none;part=1;connectable=0;allowArrows=0;deletable=0;" vertex="1" parent="12">
                    <mxGeometry width="150" height="49" relative="1" as="geometry">
                        <mxPoint y="30" as="offset"/>
                    </mxGeometry>
                </mxCell>
                <mxCell id="23" style="edgeStyle=none;html=1;exitX=0;exitY=0;exitDx=150;exitDy=65;exitPerimeter=0;entryX=0;entryY=0;entryDx=0;entryDy=65;entryPerimeter=0;" edge="1" parent="1" source="17" target="21">
                    <mxGeometry relative="1" as="geometry"/>
                </mxCell>
                <mxCell id="17" value="" style="shape=folder;fontStyle=1;tabWidth=110;tabHeight=30;tabPosition=left;html=1;boundedLbl=1;labelInHeader=1;container=1;collapsible=0;" vertex="1" parent="1">
                    <mxGeometry x="140" y="900" width="150" height="100" as="geometry"/>
                </mxCell>
                <mxCell id="18" value="Transfer" style="html=1;strokeColor=none;resizeWidth=1;resizeHeight=1;fillColor=none;part=1;connectable=0;allowArrows=0;deletable=0;" vertex="1" parent="17">
                    <mxGeometry width="150" height="70" relative="1" as="geometry">
                        <mxPoint y="30" as="offset"/>
                    </mxGeometry>
                </mxCell>
                <mxCell id="24" style="edgeStyle=none;html=1;exitX=0;exitY=0;exitDx=150;exitDy=65;exitPerimeter=0;" edge="1" parent="1" source="19">
                    <mxGeometry relative="1" as="geometry">
                        <mxPoint x="440" y="750" as="targetPoint"/>
                    </mxGeometry>
                </mxCell>
                <mxCell id="19" value="" style="shape=folder;fontStyle=1;tabWidth=110;tabHeight=30;tabPosition=left;html=1;boundedLbl=1;labelInHeader=1;container=1;collapsible=0;" vertex="1" parent="1">
                    <mxGeometry x="140" y="780" width="150" height="100" as="geometry"/>
                </mxCell>
                <mxCell id="20" value="Accounts" style="html=1;strokeColor=none;resizeWidth=1;resizeHeight=1;fillColor=none;part=1;connectable=0;allowArrows=0;deletable=0;" vertex="1" parent="19">
                    <mxGeometry width="150" height="70" relative="1" as="geometry">
                        <mxPoint y="30" as="offset"/>
                    </mxGeometry>
                </mxCell>
                <mxCell id="21" value="" style="shape=folder;fontStyle=1;tabWidth=110;tabHeight=30;tabPosition=left;html=1;boundedLbl=1;labelInHeader=1;container=1;collapsible=0;" vertex="1" parent="1">
                    <mxGeometry x="440" y="680" width="150" height="100" as="geometry"/>
                </mxCell>
                <mxCell id="22" value="Functions" style="html=1;strokeColor=none;resizeWidth=1;resizeHeight=1;fillColor=none;part=1;connectable=0;allowArrows=0;deletable=0;" vertex="1" parent="21">
                    <mxGeometry width="150" height="70" relative="1" as="geometry">
                        <mxPoint y="30" as="offset"/>
                    </mxGeometry>
                </mxCell>
                <mxCell id="34" style="edgeStyle=none;html=1;exitX=0;exitY=0;exitDx=150;exitDy=65;exitPerimeter=0;" edge="1" parent="1" source="27">
                    <mxGeometry relative="1" as="geometry">
                        <mxPoint x="630" y="520" as="targetPoint"/>
                    </mxGeometry>
                </mxCell>
                <mxCell id="27" value="" style="shape=folder;fontStyle=1;tabWidth=110;tabHeight=30;tabPosition=left;html=1;boundedLbl=1;labelInHeader=1;container=1;collapsible=0;" vertex="1" parent="1">
                    <mxGeometry x="420" y="370" width="150" height="100" as="geometry"/>
                </mxCell>
                <mxCell id="28" value="Personal" style="html=1;strokeColor=none;resizeWidth=1;resizeHeight=1;fillColor=none;part=1;connectable=0;allowArrows=0;deletable=0;" vertex="1" parent="27">
                    <mxGeometry width="150" height="70" relative="1" as="geometry">
                        <mxPoint y="30" as="offset"/>
                    </mxGeometry>
                </mxCell>
                <mxCell id="33" style="edgeStyle=none;html=1;exitX=0;exitY=0;exitDx=150;exitDy=65;exitPerimeter=0;entryX=0;entryY=0;entryDx=0;entryDy=65;entryPerimeter=0;" edge="1" parent="1" source="29" target="31">
                    <mxGeometry relative="1" as="geometry"/>
                </mxCell>
                <mxCell id="29" value="" style="shape=folder;fontStyle=1;tabWidth=110;tabHeight=30;tabPosition=left;html=1;boundedLbl=1;labelInHeader=1;container=1;collapsible=0;" vertex="1" parent="1">
                    <mxGeometry x="425" y="510" width="150" height="100" as="geometry"/>
                </mxCell>
                <mxCell id="30" value="Business" style="html=1;strokeColor=none;resizeWidth=1;resizeHeight=1;fillColor=none;part=1;connectable=0;allowArrows=0;deletable=0;" vertex="1" parent="29">
                    <mxGeometry width="150" height="70" relative="1" as="geometry">
                        <mxPoint y="30" as="offset"/>
                    </mxGeometry>
                </mxCell>
                <mxCell id="31" value="" style="shape=folder;fontStyle=1;tabWidth=110;tabHeight=30;tabPosition=left;html=1;boundedLbl=1;labelInHeader=1;container=1;collapsible=0;" vertex="1" parent="1">
                    <mxGeometry x="630" y="460" width="150" height="100" as="geometry"/>
                </mxCell>
                <mxCell id="32" value="Users" style="html=1;strokeColor=none;resizeWidth=1;resizeHeight=1;fillColor=none;part=1;connectable=0;allowArrows=0;deletable=0;" vertex="1" parent="31">
                    <mxGeometry width="150" height="70" relative="1" as="geometry">
                        <mxPoint y="30" as="offset"/>
                    </mxGeometry>
                </mxCell>
            </root>
        </mxGraphModel>
    </diagram>
</mxfile>